<svg width="720" height="405" viewBox="0 0 720 405" fill="none" xmlns="http://www.w3.org/2000/svg">
<rect width="720" height="405" fill="url(#paint0_radial_2_14)"/>
<g filter="url(#filter0_d_2_14)">
<path d="M168.251 234.768C163.579 234.768 160.091 233.072 157.787 229.68C155.483 226.224 154.331 220.4 154.331 212.208V201.456C154.331 197.232 154.683 193.328 155.387 189.744C156.091 186.096 157.403 183.184 159.323 181.008C161.307 178.832 164.187 177.744 167.963 177.744C169.819 177.744 171.515 178.16 173.051 178.992C174.587 179.824 175.963 180.848 177.179 182.064V156.24H187.451V234H177.179V230.448C175.963 231.728 174.619 232.784 173.147 233.616C171.739 234.384 170.107 234.768 168.251 234.768ZM170.843 226.704C171.803 226.704 172.827 226.544 173.915 226.224C175.003 225.84 176.091 225.296 177.179 224.592V188.208C176.283 187.568 175.291 187.024 174.203 186.576C173.115 186.064 171.931 185.808 170.651 185.808C168.283 185.808 166.683 186.96 165.851 189.264C165.019 191.504 164.603 194.224 164.603 197.424V213.072C164.603 215.632 164.731 217.968 164.987 220.08C165.307 222.128 165.915 223.76 166.811 224.976C167.707 226.128 169.051 226.704 170.843 226.704ZM213.12 234.768C209.024 234.768 205.792 233.936 203.424 232.272C201.056 230.608 199.36 228.24 198.336 225.168C197.376 222.096 196.896 218.48 196.896 214.32V198.192C196.896 194.032 197.376 190.416 198.336 187.344C199.36 184.272 201.056 181.904 203.424 180.24C205.792 178.576 209.024 177.744 213.12 177.744C217.216 177.744 220.416 178.576 222.72 180.24C225.088 181.904 226.752 184.272 227.712 187.344C228.736 190.416 229.248 194.032 229.248 198.192V214.32C229.248 218.48 228.736 222.096 227.712 225.168C226.752 228.24 225.088 230.608 222.72 232.272C220.416 233.936 217.216 234.768 213.12 234.768ZM213.12 227.184C215.104 227.184 216.48 226.608 217.248 225.456C218.08 224.304 218.56 222.8 218.688 220.944C218.88 219.024 218.976 217.04 218.976 214.992V197.616C218.976 195.504 218.88 193.52 218.688 191.664C218.56 189.808 218.08 188.304 217.248 187.152C216.48 185.936 215.104 185.328 213.12 185.328C211.136 185.328 209.728 185.936 208.896 187.152C208.064 188.304 207.552 189.808 207.36 191.664C207.232 193.52 207.168 195.504 207.168 197.616V214.992C207.168 217.04 207.232 219.024 207.36 220.944C207.552 222.8 208.064 224.304 208.896 225.456C209.728 226.608 211.136 227.184 213.12 227.184ZM275.359 234.768C272.479 234.768 270.143 234.224 268.351 233.136C266.623 232.048 265.343 230.512 264.511 228.528C263.743 226.544 263.359 224.208 263.359 221.52V185.328H257.503V178.512H263.359V162.288H273.631V178.512H282.559V185.328H273.631V220.848C273.631 223.024 273.983 224.592 274.687 225.552C275.391 226.448 276.735 226.896 278.719 226.896C279.231 226.896 279.807 226.864 280.447 226.8C281.151 226.736 281.823 226.672 282.463 226.608V234.192C281.183 234.384 279.999 234.512 278.911 234.576C277.823 234.704 276.639 234.768 275.359 234.768ZM290.394 234V156.24H300.666V184.272C302.522 182.48 304.602 180.944 306.906 179.664C309.21 178.384 311.77 177.744 314.586 177.744C316.762 177.744 318.426 178.32 319.578 179.472C320.794 180.624 321.626 182.064 322.074 183.792C322.586 185.52 322.842 187.28 322.842 189.072V234H312.57V192.048C312.57 190.064 312.282 188.528 311.706 187.44C311.13 186.352 309.946 185.808 308.154 185.808C306.938 185.808 305.658 186.16 304.314 186.864C303.034 187.568 301.818 188.432 300.666 189.456V234H290.394ZM348.216 234.768C343.864 234.768 340.504 233.936 338.136 232.272C335.768 230.544 334.104 228.048 333.144 224.784C332.248 221.456 331.8 217.392 331.8 212.592V199.92C331.8 194.992 332.28 190.896 333.24 187.632C334.2 184.368 335.864 181.904 338.232 180.24C340.664 178.576 343.992 177.744 348.216 177.744C352.888 177.744 356.312 178.704 358.488 180.624C360.728 182.544 362.2 185.328 362.904 188.976C363.608 192.56 363.96 196.88 363.96 201.936V206.448H342.072V217.584C342.072 219.824 342.264 221.648 342.648 223.056C343.096 224.464 343.768 225.52 344.664 226.224C345.624 226.864 346.84 227.184 348.312 227.184C349.848 227.184 351 226.832 351.768 226.128C352.6 225.36 353.144 224.304 353.4 222.96C353.72 221.552 353.88 219.92 353.88 218.064V214.704H363.864V216.816C363.864 222.384 362.68 226.768 360.312 229.968C357.944 233.168 353.912 234.768 348.216 234.768ZM342.072 200.88H353.88V195.888C353.88 193.584 353.752 191.664 353.496 190.128C353.24 188.528 352.696 187.344 351.864 186.576C351.096 185.744 349.848 185.328 348.12 185.328C346.456 185.328 345.176 185.712 344.28 186.48C343.448 187.248 342.872 188.56 342.552 190.416C342.232 192.208 342.072 194.704 342.072 197.904V200.88ZM409.984 234.768C407.104 234.768 404.768 234.224 402.976 233.136C401.248 232.048 399.968 230.512 399.136 228.528C398.368 226.544 397.984 224.208 397.984 221.52V185.328H392.128V178.512H397.984V162.288H408.256V178.512H417.184V185.328H408.256V220.848C408.256 223.024 408.608 224.592 409.312 225.552C410.016 226.448 411.36 226.896 413.344 226.896C413.856 226.896 414.432 226.864 415.072 226.8C415.776 226.736 416.448 226.672 417.088 226.608V234.192C415.808 234.384 414.624 234.512 413.536 234.576C412.448 234.704 411.264 234.768 409.984 234.768ZM425.019 234V156.24H435.291V184.272C437.147 182.48 439.227 180.944 441.531 179.664C443.835 178.384 446.395 177.744 449.211 177.744C451.387 177.744 453.051 178.32 454.203 179.472C455.419 180.624 456.251 182.064 456.699 183.792C457.211 185.52 457.467 187.28 457.467 189.072V234H447.195V192.048C447.195 190.064 446.907 188.528 446.331 187.44C445.755 186.352 444.571 185.808 442.779 185.808C441.563 185.808 440.283 186.16 438.939 186.864C437.659 187.568 436.443 188.432 435.291 189.456V234H425.019ZM468.153 234V178.512H478.425V234H468.153ZM468.153 170.256V159.504H478.425V170.256H468.153ZM489.418 234V178.512H499.69V183.984C501.546 182.256 503.594 180.784 505.834 179.568C508.074 178.352 510.538 177.744 513.226 177.744C515.466 177.744 517.162 178.32 518.314 179.472C519.53 180.624 520.362 182.064 520.81 183.792C521.322 185.52 521.578 187.28 521.578 189.072V234H511.306V192.048C511.306 190.064 511.018 188.528 510.442 187.44C509.866 186.352 508.682 185.808 506.89 185.808C505.738 185.808 504.522 186.16 503.242 186.864C502.026 187.504 500.842 188.304 499.69 189.264V234H489.418ZM546.294 251.376C542.902 251.376 539.83 250.992 537.078 250.224C534.39 249.52 532.246 248.4 530.646 246.864C529.11 245.328 528.342 243.312 528.342 240.816C528.342 238.896 528.79 237.2 529.686 235.728C530.582 234.32 531.734 233.104 533.142 232.08C534.55 231.056 536.022 230.256 537.558 229.68L542.358 230.352C541.526 231.12 540.726 231.92 539.958 232.752C539.19 233.52 538.55 234.32 538.038 235.152C537.526 236.048 537.27 237.008 537.27 238.032C537.27 239.696 537.974 240.944 539.382 241.776C540.854 242.608 543.446 243.024 547.158 243.024C550.806 243.024 553.494 242.576 555.222 241.68C557.014 240.848 557.91 239.504 557.91 237.648C557.91 236.496 557.686 235.536 557.238 234.768C556.79 234.064 556.022 233.488 554.934 233.04C553.846 232.592 552.278 232.272 550.23 232.08L538.134 230.544C535.638 230.224 533.782 229.424 532.566 228.144C531.35 226.864 530.742 225.456 530.742 223.92C530.742 221.616 531.382 219.664 532.662 218.064C534.006 216.464 535.798 214.672 538.038 212.688L541.494 215.376C541.11 215.888 540.63 216.624 540.054 217.584C539.478 218.48 539.19 219.376 539.19 220.272C539.19 220.976 539.542 221.552 540.246 222C541.014 222.448 542.198 222.736 543.798 222.864L553.11 223.728C557.462 224.112 560.694 225.424 562.806 227.664C564.918 229.904 565.974 233.104 565.974 237.264C565.974 240.336 565.238 242.928 563.766 245.04C562.358 247.152 560.214 248.72 557.334 249.744C554.454 250.832 550.774 251.376 546.294 251.376ZM546.678 216.912C542.902 216.912 539.83 216.08 537.462 214.416C535.094 212.752 533.334 210.448 532.182 207.504C531.094 204.56 530.55 201.2 530.55 197.424C530.55 193.136 531.158 189.552 532.374 186.672C533.59 183.728 535.382 181.52 537.75 180.048C540.182 178.512 543.158 177.744 546.678 177.744C550.326 177.744 553.302 178.672 555.606 180.528C557.91 182.32 559.606 184.72 560.694 187.728C561.782 190.736 562.326 194.064 562.326 197.712C562.326 201.488 561.814 204.848 560.79 207.792C559.83 210.672 558.198 212.912 555.894 214.512C553.654 216.112 550.582 216.912 546.678 216.912ZM546.678 209.52C548.086 209.52 549.206 209.264 550.038 208.752C550.87 208.176 551.478 207.376 551.862 206.352C552.31 205.328 552.598 204.08 552.726 202.608C552.918 201.072 553.014 199.344 553.014 197.424C553.014 195.504 552.95 193.776 552.822 192.24C552.694 190.704 552.406 189.424 551.958 188.4C551.51 187.312 550.87 186.48 550.038 185.904C549.206 185.328 548.118 185.04 546.774 185.04C545.366 185.04 544.214 185.328 543.318 185.904C542.486 186.416 541.814 187.216 541.302 188.304C540.854 189.328 540.534 190.608 540.342 192.144C540.214 193.68 540.15 195.44 540.15 197.424C540.15 199.152 540.214 200.752 540.342 202.224C540.534 203.696 540.854 204.976 541.302 206.064C541.75 207.152 542.39 208.016 543.222 208.656C544.118 209.232 545.27 209.52 546.678 209.52ZM560.406 187.824L558.006 183.984C558.518 183.088 559.67 181.968 561.462 180.624C563.254 179.28 565.174 178.16 567.222 177.264L569.91 183.984C569.014 184.176 567.798 184.528 566.262 185.04C564.79 185.552 563.446 186.096 562.23 186.672C561.014 187.184 560.406 187.568 560.406 187.824Z" fill="white"/>
</g>
<defs>
<filter id="filter0_d_2_14" x="150.331" y="156.24" width="423.579" height="103.136" filterUnits="userSpaceOnUse" color-interpolation-filters="sRGB">
<feFlood flood-opacity="0" result="BackgroundImageFix"/>
<feColorMatrix in="SourceAlpha" type="matrix" values="0 0 0 0 0 0 0 0 0 0 0 0 0 0 0 0 0 0 127 0" result="hardAlpha"/>
<feOffset dy="4"/>
<feGaussianBlur stdDeviation="2"/>
<feComposite in2="hardAlpha" operator="out"/>
<feColorMatrix type="matrix" values="0 0 0 0 0 0 0 0 0 0 0 0 0 0 0 0 0 0 0.25 0"/>
<feBlend mode="normal" in2="BackgroundImageFix" result="effect1_dropShadow_2_14"/>
<feBlend mode="normal" in="SourceGraphic" in2="effect1_dropShadow_2_14" result="shape"/>
</filter>
<radialGradient id="paint0_radial_2_14" cx="0" cy="0" r="1" gradientUnits="userSpaceOnUse" gradientTransform="rotate(29.3578) scale(826.09 1468.6)">
<stop stop-color="#0F766E"/>
<stop offset="1" stop-color="#A7F3D0"/>
</radialGradient>
</defs>
</svg>
