<svg width="720" height="405" viewBox="0 0 720 405" fill="none" xmlns="http://www.w3.org/2000/svg">
<rect width="720" height="405" fill="url(#paint0_radial_1_9)"/>
<g filter="url(#filter0_d_1_9)">
<path d="M29.2199 234V156.24H40.0679V226.224H59.9399V234H29.2199ZM81.5909 234.768C77.2389 234.768 73.8789 233.936 71.5109 232.272C69.1429 230.544 67.4789 228.048 66.5189 224.784C65.6229 221.456 65.1749 217.392 65.1749 212.592V199.92C65.1749 194.992 65.6549 190.896 66.6149 187.632C67.5749 184.368 69.2389 181.904 71.6069 180.24C74.0389 178.576 77.3669 177.744 81.5909 177.744C86.2629 177.744 89.6869 178.704 91.8629 180.624C94.1029 182.544 95.5749 185.328 96.2789 188.976C96.9829 192.56 97.3349 196.88 97.3349 201.936V206.448H75.4469V217.584C75.4469 219.824 75.6389 221.648 76.0229 223.056C76.4709 224.464 77.1429 225.52 78.0389 226.224C78.9989 226.864 80.2149 227.184 81.6869 227.184C83.2229 227.184 84.3749 226.832 85.1429 226.128C85.9749 225.36 86.5189 224.304 86.7749 222.96C87.0949 221.552 87.2549 219.92 87.2549 218.064V214.704H97.2389V216.816C97.2389 222.384 96.0549 226.768 93.6869 229.968C91.3189 233.168 87.2869 234.768 81.5909 234.768ZM75.4469 200.88H87.2549V195.888C87.2549 193.584 87.1269 191.664 86.8709 190.128C86.6149 188.528 86.0709 187.344 85.2389 186.576C84.4709 185.744 83.2229 185.328 81.4949 185.328C79.8309 185.328 78.5509 185.712 77.6549 186.48C76.8229 187.248 76.2469 188.56 75.9269 190.416C75.6069 192.208 75.4469 194.704 75.4469 197.904V200.88ZM114.989 234.768C112.813 234.768 110.893 234.16 109.229 232.944C107.565 231.664 106.253 230.064 105.293 228.144C104.333 226.16 103.853 224.08 103.853 221.904C103.853 218.448 104.429 215.536 105.581 213.168C106.733 210.8 108.301 208.816 110.285 207.216C112.333 205.552 114.669 204.112 117.293 202.896C119.981 201.68 122.797 200.496 125.741 199.344V195.408C125.741 193.168 125.613 191.312 125.357 189.84C125.101 188.368 124.557 187.28 123.725 186.576C122.957 185.808 121.773 185.424 120.173 185.424C118.765 185.424 117.613 185.744 116.717 186.384C115.885 187.024 115.277 187.952 114.893 189.168C114.509 190.32 114.317 191.696 114.317 193.296V196.08L104.141 195.696C104.269 189.552 105.677 185.04 108.365 182.16C111.053 179.216 115.213 177.744 120.845 177.744C126.349 177.744 130.253 179.248 132.557 182.256C134.861 185.264 136.013 189.616 136.013 195.312V220.656C136.013 222.384 136.045 224.048 136.109 225.648C136.237 227.248 136.365 228.752 136.493 230.16C136.685 231.504 136.845 232.784 136.973 234H127.565C127.373 232.976 127.117 231.696 126.797 230.16C126.541 228.56 126.349 227.12 126.221 225.84C125.581 228.016 124.333 230.064 122.477 231.984C120.685 233.84 118.189 234.768 114.989 234.768ZM119.021 225.936C120.045 225.936 121.005 225.648 121.901 225.072C122.797 224.496 123.597 223.856 124.301 223.152C125.005 222.384 125.485 221.776 125.741 221.328V205.584C124.141 206.48 122.637 207.376 121.229 208.272C119.821 209.168 118.573 210.128 117.485 211.152C116.461 212.112 115.629 213.232 114.989 214.512C114.413 215.728 114.125 217.136 114.125 218.736C114.125 220.976 114.541 222.736 115.373 224.016C116.205 225.296 117.421 225.936 119.021 225.936ZM146.206 234V178.512H156.478V186.384C158.526 182.992 160.574 180.72 162.622 179.568C164.67 178.416 166.718 177.84 168.766 177.84C169.022 177.84 169.246 177.84 169.438 177.84C169.694 177.84 170.014 177.872 170.398 177.936V189.264C169.63 188.944 168.734 188.688 167.71 188.496C166.75 188.24 165.758 188.112 164.734 188.112C163.134 188.112 161.662 188.496 160.318 189.264C159.038 189.968 157.758 191.376 156.478 193.488V234H146.206ZM176.762 234V178.512H187.034V183.984C188.89 182.256 190.938 180.784 193.178 179.568C195.418 178.352 197.882 177.744 200.57 177.744C202.81 177.744 204.506 178.32 205.658 179.472C206.874 180.624 207.706 182.064 208.154 183.792C208.666 185.52 208.922 187.28 208.922 189.072V234H198.65V192.048C198.65 190.064 198.362 188.528 197.786 187.44C197.21 186.352 196.026 185.808 194.234 185.808C193.082 185.808 191.866 186.16 190.586 186.864C189.37 187.504 188.186 188.304 187.034 189.264V234H176.762ZM219.622 234V178.512H229.894V234H219.622ZM219.622 170.256V159.504H229.894V170.256H219.622ZM240.887 234V178.512H251.159V183.984C253.015 182.256 255.063 180.784 257.303 179.568C259.543 178.352 262.007 177.744 264.695 177.744C266.935 177.744 268.631 178.32 269.783 179.472C270.999 180.624 271.831 182.064 272.279 183.792C272.791 185.52 273.047 187.28 273.047 189.072V234H262.775V192.048C262.775 190.064 262.487 188.528 261.911 187.44C261.335 186.352 260.151 185.808 258.359 185.808C257.207 185.808 255.991 186.16 254.711 186.864C253.495 187.504 252.311 188.304 251.159 189.264V234H240.887ZM297.763 251.376C294.371 251.376 291.299 250.992 288.547 250.224C285.859 249.52 283.715 248.4 282.115 246.864C280.579 245.328 279.811 243.312 279.811 240.816C279.811 238.896 280.259 237.2 281.155 235.728C282.051 234.32 283.203 233.104 284.611 232.08C286.019 231.056 287.491 230.256 289.027 229.68L293.827 230.352C292.995 231.12 292.195 231.92 291.427 232.752C290.659 233.52 290.019 234.32 289.507 235.152C288.995 236.048 288.739 237.008 288.739 238.032C288.739 239.696 289.443 240.944 290.851 241.776C292.323 242.608 294.915 243.024 298.627 243.024C302.275 243.024 304.963 242.576 306.691 241.68C308.483 240.848 309.379 239.504 309.379 237.648C309.379 236.496 309.155 235.536 308.707 234.768C308.259 234.064 307.491 233.488 306.403 233.04C305.315 232.592 303.747 232.272 301.699 232.08L289.603 230.544C287.107 230.224 285.251 229.424 284.035 228.144C282.819 226.864 282.211 225.456 282.211 223.92C282.211 221.616 282.851 219.664 284.131 218.064C285.475 216.464 287.267 214.672 289.507 212.688L292.963 215.376C292.579 215.888 292.099 216.624 291.523 217.584C290.947 218.48 290.659 219.376 290.659 220.272C290.659 220.976 291.011 221.552 291.715 222C292.483 222.448 293.667 222.736 295.267 222.864L304.579 223.728C308.931 224.112 312.163 225.424 314.275 227.664C316.387 229.904 317.443 233.104 317.443 237.264C317.443 240.336 316.707 242.928 315.235 245.04C313.827 247.152 311.683 248.72 308.803 249.744C305.923 250.832 302.243 251.376 297.763 251.376ZM298.147 216.912C294.371 216.912 291.299 216.08 288.931 214.416C286.563 212.752 284.803 210.448 283.651 207.504C282.563 204.56 282.019 201.2 282.019 197.424C282.019 193.136 282.627 189.552 283.843 186.672C285.059 183.728 286.851 181.52 289.219 180.048C291.651 178.512 294.627 177.744 298.147 177.744C301.795 177.744 304.771 178.672 307.075 180.528C309.379 182.32 311.075 184.72 312.163 187.728C313.251 190.736 313.795 194.064 313.795 197.712C313.795 201.488 313.283 204.848 312.259 207.792C311.299 210.672 309.667 212.912 307.363 214.512C305.123 216.112 302.051 216.912 298.147 216.912ZM298.147 209.52C299.555 209.52 300.675 209.264 301.507 208.752C302.339 208.176 302.947 207.376 303.331 206.352C303.779 205.328 304.067 204.08 304.195 202.608C304.387 201.072 304.483 199.344 304.483 197.424C304.483 195.504 304.419 193.776 304.291 192.24C304.163 190.704 303.875 189.424 303.427 188.4C302.979 187.312 302.339 186.48 301.507 185.904C300.675 185.328 299.587 185.04 298.243 185.04C296.835 185.04 295.683 185.328 294.787 185.904C293.955 186.416 293.283 187.216 292.771 188.304C292.323 189.328 292.003 190.608 291.811 192.144C291.683 193.68 291.619 195.44 291.619 197.424C291.619 199.152 291.683 200.752 291.811 202.224C292.003 203.696 292.323 204.976 292.771 206.064C293.219 207.152 293.859 208.016 294.691 208.656C295.587 209.232 296.739 209.52 298.147 209.52ZM311.875 187.824L309.475 183.984C309.987 183.088 311.139 181.968 312.931 180.624C314.723 179.28 316.643 178.16 318.691 177.264L321.379 183.984C320.483 184.176 319.267 184.528 317.731 185.04C316.259 185.552 314.915 186.096 313.699 186.672C312.483 187.184 311.875 187.568 311.875 187.824ZM342.875 235.824V228.048C345.243 228.048 347.163 227.888 348.635 227.568C350.107 227.248 351.227 226.672 351.995 225.84C352.827 225.008 353.403 223.824 353.723 222.288C354.043 220.688 354.203 218.672 354.203 216.24V156.24H364.955V216.432C364.955 220.912 364.475 224.592 363.515 227.472C362.555 230.288 360.859 232.4 358.427 233.808C355.995 235.152 352.539 235.824 348.059 235.824H342.875ZM384.614 234.768C382.438 234.768 380.518 234.16 378.854 232.944C377.19 231.664 375.878 230.064 374.918 228.144C373.958 226.16 373.478 224.08 373.478 221.904C373.478 218.448 374.054 215.536 375.206 213.168C376.358 210.8 377.926 208.816 379.91 207.216C381.958 205.552 384.294 204.112 386.918 202.896C389.606 201.68 392.422 200.496 395.366 199.344V195.408C395.366 193.168 395.238 191.312 394.982 189.84C394.726 188.368 394.182 187.28 393.35 186.576C392.582 185.808 391.398 185.424 389.798 185.424C388.39 185.424 387.238 185.744 386.342 186.384C385.51 187.024 384.902 187.952 384.518 189.168C384.134 190.32 383.942 191.696 383.942 193.296V196.08L373.766 195.696C373.894 189.552 375.302 185.04 377.99 182.16C380.678 179.216 384.838 177.744 390.47 177.744C395.974 177.744 399.878 179.248 402.182 182.256C404.486 185.264 405.638 189.616 405.638 195.312V220.656C405.638 222.384 405.67 224.048 405.734 225.648C405.862 227.248 405.99 228.752 406.118 230.16C406.31 231.504 406.47 232.784 406.598 234H397.19C396.998 232.976 396.742 231.696 396.422 230.16C396.166 228.56 395.974 227.12 395.846 225.84C395.206 228.016 393.958 230.064 392.102 231.984C390.31 233.84 387.814 234.768 384.614 234.768ZM388.646 225.936C389.67 225.936 390.63 225.648 391.526 225.072C392.422 224.496 393.222 223.856 393.926 223.152C394.63 222.384 395.11 221.776 395.366 221.328V205.584C393.766 206.48 392.262 207.376 390.854 208.272C389.446 209.168 388.198 210.128 387.11 211.152C386.086 212.112 385.254 213.232 384.614 214.512C384.038 215.728 383.75 217.136 383.75 218.736C383.75 220.976 384.166 222.736 384.998 224.016C385.83 225.296 387.046 225.936 388.646 225.936ZM422.462 234L411.518 178.512H421.886L428.702 223.152L435.614 178.512H445.598L435.038 234H422.462ZM460.083 234.768C457.907 234.768 455.987 234.16 454.323 232.944C452.659 231.664 451.347 230.064 450.387 228.144C449.427 226.16 448.947 224.08 448.947 221.904C448.947 218.448 449.523 215.536 450.675 213.168C451.827 210.8 453.395 208.816 455.379 207.216C457.427 205.552 459.763 204.112 462.387 202.896C465.075 201.68 467.891 200.496 470.835 199.344V195.408C470.835 193.168 470.707 191.312 470.451 189.84C470.195 188.368 469.651 187.28 468.819 186.576C468.051 185.808 466.867 185.424 465.267 185.424C463.859 185.424 462.707 185.744 461.811 186.384C460.979 187.024 460.371 187.952 459.987 189.168C459.603 190.32 459.411 191.696 459.411 193.296V196.08L449.235 195.696C449.363 189.552 450.771 185.04 453.459 182.16C456.147 179.216 460.307 177.744 465.939 177.744C471.443 177.744 475.347 179.248 477.651 182.256C479.955 185.264 481.107 189.616 481.107 195.312V220.656C481.107 222.384 481.139 224.048 481.203 225.648C481.331 227.248 481.459 228.752 481.587 230.16C481.779 231.504 481.939 232.784 482.067 234H472.659C472.467 232.976 472.211 231.696 471.891 230.16C471.635 228.56 471.443 227.12 471.315 225.84C470.675 228.016 469.427 230.064 467.571 231.984C465.779 233.84 463.283 234.768 460.083 234.768ZM464.115 225.936C465.139 225.936 466.099 225.648 466.995 225.072C467.891 224.496 468.691 223.856 469.395 223.152C470.099 222.384 470.579 221.776 470.835 221.328V205.584C469.235 206.48 467.731 207.376 466.323 208.272C464.915 209.168 463.667 210.128 462.579 211.152C461.555 212.112 460.723 213.232 460.083 214.512C459.507 215.728 459.219 217.136 459.219 218.736C459.219 220.976 459.635 222.736 460.467 224.016C461.299 225.296 462.515 225.936 464.115 225.936ZM510.212 234.864C505.732 234.864 501.988 233.904 498.98 231.984C496.036 230.064 493.796 227.408 492.26 224.016C490.724 220.624 489.828 216.688 489.572 212.208L499.172 209.616C499.364 212.368 499.78 215.024 500.42 217.584C501.124 220.144 502.244 222.256 503.78 223.92C505.316 225.52 507.46 226.32 510.212 226.32C513.028 226.32 515.14 225.552 516.548 224.016C518.02 222.416 518.756 220.144 518.756 217.2C518.756 213.68 517.956 210.864 516.356 208.752C514.756 206.576 512.74 204.4 510.308 202.224L497.252 190.704C494.692 188.464 492.804 186.032 491.588 183.408C490.372 180.72 489.764 177.424 489.764 173.52C489.764 167.824 491.396 163.408 494.66 160.272C497.924 157.136 502.372 155.568 508.004 155.568C511.076 155.568 513.764 155.984 516.068 156.816C518.436 157.584 520.388 158.8 521.924 160.464C523.524 162.128 524.772 164.24 525.668 166.8C526.628 169.296 527.268 172.24 527.588 175.632L518.372 178.128C518.18 175.568 517.796 173.232 517.22 171.12C516.644 168.944 515.62 167.216 514.148 165.936C512.74 164.592 510.692 163.92 508.004 163.92C505.316 163.92 503.204 164.656 501.668 166.128C500.196 167.536 499.46 169.648 499.46 172.464C499.46 174.832 499.844 176.784 500.612 178.32C501.444 179.856 502.756 181.424 504.548 183.024L517.7 194.544C520.644 197.104 523.236 200.176 525.476 203.76C527.716 207.28 528.836 211.472 528.836 216.336C528.836 220.176 528.036 223.504 526.436 226.32C524.836 229.072 522.628 231.184 519.812 232.656C517.06 234.128 513.86 234.864 510.212 234.864ZM551.555 234.768C547.011 234.768 543.555 233.872 541.187 232.08C538.883 230.224 537.315 227.632 536.483 224.304C535.715 220.976 535.331 217.104 535.331 212.688V199.92C535.331 195.248 535.747 191.28 536.579 188.016C537.411 184.688 538.979 182.16 541.283 180.432C543.651 178.64 547.075 177.744 551.555 177.744C555.587 177.744 558.691 178.416 560.867 179.76C563.107 181.04 564.643 182.992 565.475 185.616C566.307 188.176 566.723 191.376 566.723 195.216V198.48H557.411V195.12C557.411 192.688 557.251 190.768 556.931 189.36C556.611 187.952 556.035 186.928 555.203 186.288C554.371 185.648 553.187 185.328 551.651 185.328C549.987 185.328 548.707 185.712 547.811 186.48C546.915 187.248 546.307 188.56 545.987 190.416C545.731 192.208 545.603 194.672 545.603 197.808V215.28C545.603 220.016 546.051 223.184 546.947 224.784C547.843 226.384 549.443 227.184 551.747 227.184C553.475 227.184 554.723 226.8 555.491 226.032C556.323 225.2 556.835 224.048 557.027 222.576C557.283 221.104 557.411 219.44 557.411 217.584V213.072H566.723V216.912C566.723 220.624 566.275 223.824 565.379 226.512C564.547 229.2 563.011 231.248 560.771 232.656C558.595 234.064 555.523 234.768 551.555 234.768ZM576.144 234V178.512H586.416V186.384C588.464 182.992 590.512 180.72 592.56 179.568C594.608 178.416 596.656 177.84 598.704 177.84C598.96 177.84 599.184 177.84 599.376 177.84C599.632 177.84 599.952 177.872 600.336 177.936V189.264C599.568 188.944 598.672 188.688 597.648 188.496C596.688 188.24 595.696 188.112 594.672 188.112C593.072 188.112 591.6 188.496 590.256 189.264C588.976 189.968 587.696 191.376 586.416 193.488V234H576.144ZM607.372 234V178.512H617.644V234H607.372ZM607.372 170.256V159.504H617.644V170.256H607.372ZM628.637 252.24V178.512H638.909V182.928C640.125 181.52 641.597 180.304 643.325 179.28C645.053 178.256 647.101 177.744 649.469 177.744C652.349 177.744 654.621 178.512 656.285 180.048C658.013 181.52 659.293 183.408 660.125 185.712C660.957 187.952 661.501 190.256 661.757 192.624C662.013 194.928 662.141 196.912 662.141 198.576V212.016C662.141 215.92 661.757 219.632 660.989 223.152C660.221 226.608 658.813 229.424 656.765 231.6C654.781 233.712 651.965 234.768 648.317 234.768C646.333 234.768 644.573 234.288 643.037 233.328C641.501 232.304 640.125 231.152 638.909 229.872V252.24H628.637ZM646.301 226.704C648.093 226.704 649.373 226.064 650.141 224.784C650.909 223.44 651.389 221.648 651.581 219.408C651.773 217.168 651.869 214.704 651.869 212.016V198.576C651.869 196.272 651.741 194.16 651.485 192.24C651.229 190.256 650.685 188.688 649.853 187.536C649.021 186.384 647.709 185.808 645.917 185.808C644.573 185.808 643.293 186.096 642.077 186.672C640.861 187.248 639.805 187.92 638.909 188.688V224.208C639.869 224.912 640.957 225.52 642.173 226.032C643.389 226.48 644.765 226.704 646.301 226.704ZM686.265 234.768C683.385 234.768 681.049 234.224 679.257 233.136C677.529 232.048 676.249 230.512 675.417 228.528C674.649 226.544 674.265 224.208 674.265 221.52V185.328H668.409V178.512H674.265V162.288H684.537V178.512H693.465V185.328H684.537V220.848C684.537 223.024 684.889 224.592 685.593 225.552C686.297 226.448 687.641 226.896 689.625 226.896C690.137 226.896 690.713 226.864 691.353 226.8C692.057 226.736 692.729 226.672 693.369 226.608V234.192C692.089 234.384 690.905 234.512 689.817 234.576C688.729 234.704 687.545 234.768 686.265 234.768Z" fill="white"/>
</g>
<path d="M221.091 300L218.115 281.504H220.931L222.851 295.136L225.315 281.504H227.939L230.403 295.072L232.323 281.504H235.139L232.067 300H229.187L226.659 286.944L224.163 300H221.091ZM240.356 300.256C239.63 300.256 238.99 300.053 238.436 299.648C237.881 299.221 237.444 298.688 237.124 298.048C236.804 297.387 236.644 296.693 236.644 295.968C236.644 294.816 236.836 293.845 237.22 293.056C237.604 292.267 238.126 291.605 238.788 291.072C239.47 290.517 240.249 290.037 241.124 289.632C242.02 289.227 242.958 288.832 243.94 288.448V287.136C243.94 286.389 243.897 285.771 243.812 285.28C243.726 284.789 243.545 284.427 243.268 284.192C243.012 283.936 242.617 283.808 242.084 283.808C241.614 283.808 241.23 283.915 240.932 284.128C240.654 284.341 240.452 284.651 240.324 285.056C240.196 285.44 240.132 285.899 240.132 286.432V287.36L236.74 287.232C236.782 285.184 237.252 283.68 238.148 282.72C239.044 281.739 240.43 281.248 242.308 281.248C244.142 281.248 245.444 281.749 246.212 282.752C246.98 283.755 247.364 285.205 247.364 287.104V295.552C247.364 296.128 247.374 296.683 247.396 297.216C247.438 297.749 247.481 298.251 247.524 298.72C247.588 299.168 247.641 299.595 247.684 300H244.548C244.484 299.659 244.398 299.232 244.292 298.72C244.206 298.187 244.142 297.707 244.1 297.28C243.886 298.005 243.47 298.688 242.852 299.328C242.254 299.947 241.422 300.256 240.356 300.256ZM241.7 297.312C242.041 297.312 242.361 297.216 242.66 297.024C242.958 296.832 243.225 296.619 243.46 296.384C243.694 296.128 243.854 295.925 243.94 295.776V290.528C243.406 290.827 242.905 291.125 242.436 291.424C241.966 291.723 241.55 292.043 241.188 292.384C240.846 292.704 240.569 293.077 240.356 293.504C240.164 293.909 240.068 294.379 240.068 294.912C240.068 295.659 240.206 296.245 240.484 296.672C240.761 297.099 241.166 297.312 241.7 297.312ZM250.986 300V274.08H254.41V300H250.986ZM262.906 300.256C261.946 300.256 261.167 300.075 260.57 299.712C259.994 299.349 259.567 298.837 259.29 298.176C259.034 297.515 258.906 296.736 258.906 295.84V283.776H256.954V281.504H258.906V276.096H262.33V281.504H265.306V283.776H262.33V295.616C262.33 296.341 262.447 296.864 262.682 297.184C262.917 297.483 263.365 297.632 264.026 297.632C264.197 297.632 264.389 297.621 264.602 297.6C264.837 297.579 265.061 297.557 265.274 297.536V300.064C264.847 300.128 264.453 300.171 264.09 300.192C263.727 300.235 263.333 300.256 262.906 300.256ZM272.942 300.256C271.491 300.256 270.371 299.979 269.582 299.424C268.792 298.848 268.238 298.016 267.918 296.928C267.619 295.819 267.47 294.464 267.47 292.864V288.64C267.47 286.997 267.63 285.632 267.95 284.544C268.27 283.456 268.824 282.635 269.614 282.08C270.424 281.525 271.534 281.248 272.942 281.248C274.499 281.248 275.64 281.568 276.366 282.208C277.112 282.848 277.603 283.776 277.838 284.992C278.072 286.187 278.19 287.627 278.19 289.312V290.816H270.894V294.528C270.894 295.275 270.958 295.883 271.086 296.352C271.235 296.821 271.459 297.173 271.758 297.408C272.078 297.621 272.483 297.728 272.974 297.728C273.486 297.728 273.87 297.611 274.126 297.376C274.403 297.12 274.584 296.768 274.67 296.32C274.776 295.851 274.83 295.307 274.83 294.688V293.568H278.158V294.272C278.158 296.128 277.763 297.589 276.974 298.656C276.184 299.723 274.84 300.256 272.942 300.256ZM270.894 288.96H274.83V287.296C274.83 286.528 274.787 285.888 274.702 285.376C274.616 284.843 274.435 284.448 274.158 284.192C273.902 283.915 273.486 283.776 272.91 283.776C272.355 283.776 271.928 283.904 271.63 284.16C271.352 284.416 271.16 284.853 271.054 285.472C270.947 286.069 270.894 286.901 270.894 287.968V288.96ZM281.387 300V281.504H284.811V284.128C285.493 282.997 286.176 282.24 286.859 281.856C287.541 281.472 288.224 281.28 288.907 281.28C288.992 281.28 289.067 281.28 289.131 281.28C289.216 281.28 289.323 281.291 289.451 281.312V285.088C289.195 284.981 288.896 284.896 288.555 284.832C288.235 284.747 287.904 284.704 287.562 284.704C287.029 284.704 286.539 284.832 286.091 285.088C285.664 285.323 285.237 285.792 284.811 286.496V300H281.387ZM296.534 300.256C295.019 300.256 293.867 299.957 293.078 299.36C292.31 298.741 291.787 297.877 291.51 296.768C291.254 295.659 291.126 294.368 291.126 292.896V288.64C291.126 287.083 291.265 285.76 291.542 284.672C291.819 283.563 292.342 282.72 293.11 282.144C293.899 281.547 295.041 281.248 296.534 281.248C297.878 281.248 298.913 281.472 299.638 281.92C300.385 282.347 300.897 282.997 301.174 283.872C301.451 284.725 301.59 285.792 301.59 287.072V288.16H298.486V287.04C298.486 286.229 298.433 285.589 298.326 285.12C298.219 284.651 298.027 284.309 297.75 284.096C297.473 283.883 297.078 283.776 296.566 283.776C296.011 283.776 295.585 283.904 295.286 284.16C294.987 284.416 294.785 284.853 294.678 285.472C294.593 286.069 294.55 286.891 294.55 287.936V293.76C294.55 295.339 294.699 296.395 294.998 296.928C295.297 297.461 295.83 297.728 296.598 297.728C297.174 297.728 297.59 297.6 297.846 297.344C298.123 297.067 298.294 296.683 298.358 296.192C298.443 295.701 298.486 295.147 298.486 294.528V293.024H301.59V294.304C301.59 295.541 301.441 296.608 301.142 297.504C300.865 298.4 300.353 299.083 299.606 299.552C298.881 300.021 297.857 300.256 296.534 300.256ZM309.566 300.256C308.201 300.256 307.123 299.979 306.334 299.424C305.545 298.869 304.979 298.08 304.638 297.056C304.318 296.032 304.158 294.827 304.158 293.44V288.064C304.158 286.677 304.318 285.472 304.638 284.448C304.979 283.424 305.545 282.635 306.334 282.08C307.123 281.525 308.201 281.248 309.566 281.248C310.931 281.248 311.998 281.525 312.766 282.08C313.555 282.635 314.11 283.424 314.43 284.448C314.771 285.472 314.942 286.677 314.942 288.064V293.44C314.942 294.827 314.771 296.032 314.43 297.056C314.11 298.08 313.555 298.869 312.766 299.424C311.998 299.979 310.931 300.256 309.566 300.256ZM309.566 297.728C310.227 297.728 310.686 297.536 310.942 297.152C311.219 296.768 311.379 296.267 311.422 295.648C311.486 295.008 311.518 294.347 311.518 293.664V287.872C311.518 287.168 311.486 286.507 311.422 285.888C311.379 285.269 311.219 284.768 310.942 284.384C310.686 283.979 310.227 283.776 309.566 283.776C308.905 283.776 308.435 283.979 308.158 284.384C307.881 284.768 307.71 285.269 307.646 285.888C307.603 286.507 307.582 287.168 307.582 287.872V293.664C307.582 294.347 307.603 295.008 307.646 295.648C307.71 296.267 307.881 296.768 308.158 297.152C308.435 297.536 308.905 297.728 309.566 297.728ZM322.36 300.256C320.802 300.256 319.64 299.691 318.872 298.56C318.104 297.408 317.72 295.467 317.72 292.736V289.152C317.72 287.744 317.837 286.443 318.072 285.248C318.306 284.032 318.744 283.061 319.384 282.336C320.045 281.611 321.005 281.248 322.264 281.248C322.882 281.248 323.448 281.387 323.96 281.664C324.472 281.941 324.93 282.283 325.336 282.688V274.08H328.76V300H325.336V298.816C324.93 299.243 324.482 299.595 323.992 299.872C323.522 300.128 322.978 300.256 322.36 300.256ZM323.224 297.568C323.544 297.568 323.885 297.515 324.248 297.408C324.61 297.28 324.973 297.099 325.336 296.864V284.736C325.037 284.523 324.706 284.341 324.344 284.192C323.981 284.021 323.586 283.936 323.16 283.936C322.37 283.936 321.837 284.32 321.56 285.088C321.282 285.835 321.144 286.741 321.144 287.808V293.024C321.144 293.877 321.186 294.656 321.272 295.36C321.378 296.043 321.581 296.587 321.88 296.992C322.178 297.376 322.626 297.568 323.224 297.568ZM337.348 300.256C335.897 300.256 334.777 299.979 333.988 299.424C333.199 298.848 332.644 298.016 332.324 296.928C332.025 295.819 331.876 294.464 331.876 292.864V288.64C331.876 286.997 332.036 285.632 332.356 284.544C332.676 283.456 333.231 282.635 334.02 282.08C334.831 281.525 335.94 281.248 337.348 281.248C338.905 281.248 340.047 281.568 340.772 282.208C341.519 282.848 342.009 283.776 342.244 284.992C342.479 286.187 342.596 287.627 342.596 289.312V290.816H335.3V294.528C335.3 295.275 335.364 295.883 335.492 296.352C335.641 296.821 335.865 297.173 336.164 297.408C336.484 297.621 336.889 297.728 337.38 297.728C337.892 297.728 338.276 297.611 338.532 297.376C338.809 297.12 338.991 296.768 339.076 296.32C339.183 295.851 339.236 295.307 339.236 294.688V293.568H342.564V294.272C342.564 296.128 342.169 297.589 341.38 298.656C340.591 299.723 339.247 300.256 337.348 300.256ZM335.3 288.96H339.236V287.296C339.236 286.528 339.193 285.888 339.108 285.376C339.023 284.843 338.841 284.448 338.564 284.192C338.308 283.915 337.892 283.776 337.316 283.776C336.761 283.776 336.335 283.904 336.036 284.16C335.759 284.416 335.567 284.853 335.46 285.472C335.353 286.069 335.3 286.901 335.3 287.968V288.96ZM349.985 300.256C348.47 300.256 347.254 299.787 346.337 298.848C345.419 297.888 344.897 296.629 344.769 295.072L347.617 294.208C347.787 295.381 348.075 296.267 348.481 296.864C348.886 297.44 349.483 297.728 350.273 297.728C350.891 297.728 351.361 297.557 351.681 297.216C352.001 296.853 352.161 296.373 352.161 295.776C352.161 295.243 352.043 294.763 351.809 294.336C351.574 293.909 351.19 293.472 350.657 293.024L347.489 290.304C346.849 289.749 346.305 289.131 345.857 288.448C345.43 287.765 345.217 286.88 345.217 285.792C345.217 284.811 345.409 283.989 345.793 283.328C346.198 282.645 346.753 282.133 347.457 281.792C348.182 281.429 349.025 281.248 349.985 281.248C351.521 281.248 352.694 281.728 353.505 282.688C354.315 283.627 354.785 284.768 354.913 286.112L352.481 286.976C352.395 286.336 352.267 285.781 352.097 285.312C351.926 284.821 351.681 284.448 351.361 284.192C351.041 283.915 350.625 283.776 350.113 283.776C349.558 283.776 349.11 283.968 348.769 284.352C348.449 284.715 348.289 285.152 348.289 285.664C348.289 285.984 348.353 286.304 348.481 286.624C348.63 286.923 348.875 287.221 349.217 287.52L352.481 290.528C352.929 290.933 353.345 291.371 353.729 291.84C354.134 292.309 354.465 292.843 354.721 293.44C354.977 294.037 355.105 294.731 355.105 295.52C355.105 296.565 354.891 297.44 354.465 298.144C354.038 298.848 353.441 299.381 352.673 299.744C351.905 300.085 351.009 300.256 349.985 300.256ZM357.09 304.672C356.812 304.672 356.503 304.651 356.162 304.608C355.841 304.587 355.564 304.533 355.329 304.448V301.984C355.436 302.005 355.585 302.027 355.777 302.048C355.97 302.069 356.119 302.08 356.226 302.08C356.716 302.08 357.1 301.984 357.378 301.792C357.655 301.6 357.847 301.333 357.954 300.992C358.082 300.651 358.146 300.267 358.146 299.84V281.504H361.57V300.192C361.57 301.643 361.164 302.752 360.354 303.52C359.564 304.288 358.476 304.672 357.09 304.672ZM358.146 278.752V275.168H361.602V278.752H358.146ZM369.329 300.256C367.814 300.256 366.598 299.787 365.681 298.848C364.763 297.888 364.241 296.629 364.113 295.072L366.961 294.208C367.131 295.381 367.419 296.267 367.825 296.864C368.23 297.44 368.827 297.728 369.617 297.728C370.235 297.728 370.705 297.557 371.025 297.216C371.345 296.853 371.505 296.373 371.505 295.776C371.505 295.243 371.387 294.763 371.153 294.336C370.918 293.909 370.534 293.472 370.001 293.024L366.833 290.304C366.193 289.749 365.649 289.131 365.201 288.448C364.774 287.765 364.561 286.88 364.561 285.792C364.561 284.811 364.753 283.989 365.137 283.328C365.542 282.645 366.097 282.133 366.801 281.792C367.526 281.429 368.369 281.248 369.329 281.248C370.865 281.248 372.038 281.728 372.849 282.688C373.659 283.627 374.129 284.768 374.257 286.112L371.825 286.976C371.739 286.336 371.611 285.781 371.441 285.312C371.27 284.821 371.025 284.448 370.705 284.192C370.385 283.915 369.969 283.776 369.457 283.776C368.902 283.776 368.454 283.968 368.113 284.352C367.793 284.715 367.633 285.152 367.633 285.664C367.633 285.984 367.697 286.304 367.825 286.624C367.974 286.923 368.219 287.221 368.561 287.52L371.825 290.528C372.273 290.933 372.689 291.371 373.073 291.84C373.478 292.309 373.809 292.843 374.065 293.44C374.321 294.037 374.449 294.731 374.449 295.52C374.449 296.565 374.235 297.44 373.809 298.144C373.382 298.848 372.785 299.381 372.017 299.744C371.249 300.085 370.353 300.256 369.329 300.256ZM376.849 300V296.192H380.273V300H376.849ZM383.041 300V281.504H386.465V283.328C387.083 282.752 387.766 282.261 388.513 281.856C389.259 281.451 390.081 281.248 390.977 281.248C391.723 281.248 392.289 281.44 392.673 281.824C393.078 282.208 393.355 282.688 393.505 283.264C393.675 283.84 393.761 284.427 393.761 285.024V300H390.337V286.016C390.337 285.355 390.241 284.843 390.049 284.48C389.856 284.117 389.462 283.936 388.865 283.936C388.481 283.936 388.075 284.053 387.649 284.288C387.243 284.501 386.849 284.768 386.465 285.088V300H383.041ZM402.223 300.256C400.772 300.256 399.652 299.979 398.863 299.424C398.074 298.848 397.519 298.016 397.199 296.928C396.9 295.819 396.751 294.464 396.751 292.864V288.64C396.751 286.997 396.911 285.632 397.231 284.544C397.551 283.456 398.106 282.635 398.895 282.08C399.706 281.525 400.815 281.248 402.223 281.248C403.78 281.248 404.922 281.568 405.647 282.208C406.394 282.848 406.884 283.776 407.119 284.992C407.354 286.187 407.471 287.627 407.471 289.312V290.816H400.175V294.528C400.175 295.275 400.239 295.883 400.367 296.352C400.516 296.821 400.74 297.173 401.039 297.408C401.359 297.621 401.764 297.728 402.255 297.728C402.767 297.728 403.151 297.611 403.407 297.376C403.684 297.12 403.866 296.768 403.951 296.32C404.058 295.851 404.111 295.307 404.111 294.688V293.568H407.439V294.272C407.439 296.128 407.044 297.589 406.255 298.656C405.466 299.723 404.122 300.256 402.223 300.256ZM400.175 288.96H404.111V287.296C404.111 286.528 404.068 285.888 403.983 285.376C403.898 284.843 403.716 284.448 403.439 284.192C403.183 283.915 402.767 283.776 402.191 283.776C401.636 283.776 401.21 283.904 400.911 284.16C400.634 284.416 400.442 284.853 400.335 285.472C400.228 286.069 400.175 286.901 400.175 287.968V288.96ZM415.5 300.256C414.54 300.256 413.761 300.075 413.164 299.712C412.588 299.349 412.161 298.837 411.884 298.176C411.628 297.515 411.5 296.736 411.5 295.84V283.776H409.548V281.504H411.5V276.096H414.924V281.504H417.9V283.776H414.924V295.616C414.924 296.341 415.041 296.864 415.276 297.184C415.51 297.483 415.958 297.632 416.62 297.632C416.79 297.632 416.982 297.621 417.196 297.6C417.43 297.579 417.654 297.557 417.868 297.536V300.064C417.441 300.128 417.046 300.171 416.684 300.192C416.321 300.235 415.926 300.256 415.5 300.256ZM420.736 300V274.08H424.16V300H420.736ZM427.952 300V281.504H431.376V300H427.952ZM427.952 278.752V275.168H431.376V278.752H427.952ZM436.129 300V284.032H433.921V281.504H436.129V280.544C436.129 279.392 436.214 278.411 436.385 277.6C436.577 276.768 436.961 276.128 437.536 275.68C438.113 275.232 438.977 275.008 440.129 275.008C440.555 275.008 440.929 275.029 441.249 275.072C441.59 275.093 441.963 275.147 442.369 275.232V277.728C442.177 277.685 441.963 277.653 441.729 277.632C441.494 277.589 441.281 277.568 441.089 277.568C440.427 277.568 440.001 277.792 439.809 278.24C439.638 278.667 439.553 279.243 439.553 279.968V281.504H442.369V284.032H439.553V300H436.129ZM443.94 304.64V302.016C444.772 302.016 445.433 301.973 445.924 301.888C446.415 301.824 446.767 301.685 446.98 301.472C447.193 301.28 447.3 301.003 447.3 300.64C447.3 300.448 447.225 300.021 447.076 299.36C446.927 298.699 446.767 297.995 446.596 297.248L442.884 281.504H446.34L448.836 295.328L451.236 281.504H454.692L450.276 301.024C450.084 301.92 449.732 302.624 449.22 303.136C448.708 303.669 448.047 304.053 447.236 304.288C446.447 304.523 445.487 304.64 444.356 304.64H443.94ZM455.662 300V296.192H459.086V300H455.662ZM464.637 300.256C463.912 300.256 463.272 300.053 462.717 299.648C462.162 299.221 461.725 298.688 461.405 298.048C461.085 297.387 460.925 296.693 460.925 295.968C460.925 294.816 461.117 293.845 461.501 293.056C461.885 292.267 462.408 291.605 463.069 291.072C463.752 290.517 464.53 290.037 465.405 289.632C466.301 289.227 467.24 288.832 468.221 288.448V287.136C468.221 286.389 468.178 285.771 468.093 285.28C468.008 284.789 467.826 284.427 467.549 284.192C467.293 283.936 466.898 283.808 466.365 283.808C465.896 283.808 465.512 283.915 465.213 284.128C464.936 284.341 464.733 284.651 464.605 285.056C464.477 285.44 464.413 285.899 464.413 286.432V287.36L461.021 287.232C461.064 285.184 461.533 283.68 462.429 282.72C463.325 281.739 464.712 281.248 466.589 281.248C468.424 281.248 469.725 281.749 470.493 282.752C471.261 283.755 471.645 285.205 471.645 287.104V295.552C471.645 296.128 471.656 296.683 471.677 297.216C471.72 297.749 471.762 298.251 471.805 298.72C471.869 299.168 471.922 299.595 471.965 300H468.829C468.765 299.659 468.68 299.232 468.573 298.72C468.488 298.187 468.424 297.707 468.381 297.28C468.168 298.005 467.752 298.688 467.133 299.328C466.536 299.947 465.704 300.256 464.637 300.256ZM465.981 297.312C466.322 297.312 466.642 297.216 466.941 297.024C467.24 296.832 467.506 296.619 467.741 296.384C467.976 296.128 468.136 295.925 468.221 295.776V290.528C467.688 290.827 467.186 291.125 466.717 291.424C466.248 291.723 465.832 292.043 465.469 292.384C465.128 292.704 464.85 293.077 464.637 293.504C464.445 293.909 464.349 294.379 464.349 294.912C464.349 295.659 464.488 296.245 464.765 296.672C465.042 297.099 465.448 297.312 465.981 297.312ZM474.947 306.08V281.504H478.371V282.976C478.776 282.507 479.267 282.101 479.843 281.76C480.419 281.419 481.101 281.248 481.891 281.248C482.851 281.248 483.608 281.504 484.163 282.016C484.739 282.507 485.165 283.136 485.443 283.904C485.72 284.651 485.901 285.419 485.987 286.208C486.072 286.976 486.115 287.637 486.115 288.192V292.672C486.115 293.973 485.987 295.211 485.731 296.384C485.475 297.536 485.005 298.475 484.323 299.2C483.661 299.904 482.723 300.256 481.507 300.256C480.845 300.256 480.259 300.096 479.747 299.776C479.235 299.435 478.776 299.051 478.371 298.624V306.08H474.947ZM480.835 297.568C481.432 297.568 481.859 297.355 482.115 296.928C482.371 296.48 482.531 295.883 482.595 295.136C482.659 294.389 482.691 293.568 482.691 292.672V288.192C482.691 287.424 482.648 286.72 482.563 286.08C482.477 285.419 482.296 284.896 482.019 284.512C481.741 284.128 481.304 283.936 480.707 283.936C480.259 283.936 479.832 284.032 479.427 284.224C479.021 284.416 478.669 284.64 478.371 284.896V296.736C478.691 296.971 479.053 297.173 479.459 297.344C479.864 297.493 480.323 297.568 480.835 297.568ZM489.228 306.08V281.504H492.652V282.976C493.057 282.507 493.548 282.101 494.124 281.76C494.7 281.419 495.383 281.248 496.172 281.248C497.132 281.248 497.889 281.504 498.444 282.016C499.02 282.507 499.447 283.136 499.724 283.904C500.001 284.651 500.183 285.419 500.268 286.208C500.353 286.976 500.396 287.637 500.396 288.192V292.672C500.396 293.973 500.268 295.211 500.012 296.384C499.756 297.536 499.287 298.475 498.604 299.2C497.943 299.904 497.004 300.256 495.788 300.256C495.127 300.256 494.54 300.096 494.028 299.776C493.516 299.435 493.057 299.051 492.652 298.624V306.08H489.228ZM495.116 297.568C495.713 297.568 496.14 297.355 496.396 296.928C496.652 296.48 496.812 295.883 496.876 295.136C496.94 294.389 496.972 293.568 496.972 292.672V288.192C496.972 287.424 496.929 286.72 496.844 286.08C496.759 285.419 496.577 284.896 496.3 284.512C496.023 284.128 495.585 283.936 494.988 283.936C494.54 283.936 494.113 284.032 493.708 284.224C493.303 284.416 492.951 284.64 492.652 284.896V296.736C492.972 296.971 493.335 297.173 493.74 297.344C494.145 297.493 494.604 297.568 495.116 297.568Z" fill="white"/>
<defs>
<filter id="filter0_d_1_9" x="25.2198" y="155.568" width="672.245" height="104.672" filterUnits="userSpaceOnUse" color-interpolation-filters="sRGB">
<feFlood flood-opacity="0" result="BackgroundImageFix"/>
<feColorMatrix in="SourceAlpha" type="matrix" values="0 0 0 0 0 0 0 0 0 0 0 0 0 0 0 0 0 0 127 0" result="hardAlpha"/>
<feOffset dy="4"/>
<feGaussianBlur stdDeviation="2"/>
<feComposite in2="hardAlpha" operator="out"/>
<feColorMatrix type="matrix" values="0 0 0 0 0 0 0 0 0 0 0 0 0 0 0 0 0 0 0.25 0"/>
<feBlend mode="normal" in2="BackgroundImageFix" result="effect1_dropShadow_1_9"/>
<feBlend mode="normal" in="SourceGraphic" in2="effect1_dropShadow_1_9" result="shape"/>
</filter>
<radialGradient id="paint0_radial_1_9" cx="0" cy="0" r="1" gradientUnits="userSpaceOnUse" gradientTransform="rotate(29.3578) scale(826.09 1468.6)">
<stop stop-color="#CA5231"/>
<stop offset="1" stop-color="#F7DF1E"/>
</radialGradient>
</defs>
</svg>
