<svg width="720" height="405" viewBox="0 0 720 405" fill="none" xmlns="http://www.w3.org/2000/svg">
<rect width="720" height="405" fill="url(#paint0_radial_1_2)"/>
<g filter="url(#filter0_d_1_2)">
<path d="M217.282 234V156.24H236.578C241.25 156.24 244.962 157.104 247.714 158.832C250.53 160.496 252.578 162.928 253.858 166.128C255.138 169.328 255.778 173.2 255.778 177.744C255.778 181.84 255.042 185.392 253.57 188.4C252.162 191.408 250.05 193.744 247.234 195.408C244.418 197.008 240.898 197.808 236.674 197.808H228.13V234H217.282ZM228.13 190.032H233.122C236.258 190.032 238.722 189.68 240.514 188.976C242.306 188.272 243.586 187.056 244.354 185.328C245.122 183.536 245.506 181.04 245.506 177.84C245.506 174.128 245.218 171.28 244.642 169.296C244.13 167.312 243.01 165.936 241.282 165.168C239.554 164.4 236.866 164.016 233.218 164.016H228.13V190.032ZM275.932 234.768C271.836 234.768 268.604 233.936 266.236 232.272C263.868 230.608 262.172 228.24 261.148 225.168C260.188 222.096 259.708 218.48 259.708 214.32V198.192C259.708 194.032 260.188 190.416 261.148 187.344C262.172 184.272 263.868 181.904 266.236 180.24C268.604 178.576 271.836 177.744 275.932 177.744C280.028 177.744 283.228 178.576 285.532 180.24C287.9 181.904 289.564 184.272 290.524 187.344C291.548 190.416 292.06 194.032 292.06 198.192V214.32C292.06 218.48 291.548 222.096 290.524 225.168C289.564 228.24 287.9 230.608 285.532 232.272C283.228 233.936 280.028 234.768 275.932 234.768ZM275.932 227.184C277.916 227.184 279.292 226.608 280.06 225.456C280.892 224.304 281.372 222.8 281.5 220.944C281.692 219.024 281.788 217.04 281.788 214.992V197.616C281.788 195.504 281.692 193.52 281.5 191.664C281.372 189.808 280.892 188.304 280.06 187.152C279.292 185.936 277.916 185.328 275.932 185.328C273.948 185.328 272.54 185.936 271.708 187.152C270.876 188.304 270.364 189.808 270.172 191.664C270.044 193.52 269.98 195.504 269.98 197.616V214.992C269.98 217.04 270.044 219.024 270.172 220.944C270.364 222.8 270.876 224.304 271.708 225.456C272.54 226.608 273.948 227.184 275.932 227.184ZM301.738 234V178.512H312.01V186.384C314.058 182.992 316.106 180.72 318.154 179.568C320.202 178.416 322.25 177.84 324.298 177.84C324.554 177.84 324.778 177.84 324.97 177.84C325.226 177.84 325.546 177.872 325.93 177.936V189.264C325.162 188.944 324.266 188.688 323.242 188.496C322.282 188.24 321.29 188.112 320.266 188.112C318.666 188.112 317.194 188.496 315.85 189.264C314.57 189.968 313.29 191.376 312.01 193.488V234H301.738ZM347.077 234.768C344.197 234.768 341.861 234.224 340.069 233.136C338.341 232.048 337.061 230.512 336.229 228.528C335.461 226.544 335.077 224.208 335.077 221.52V185.328H329.221V178.512H335.077V162.288H345.349V178.512H354.277V185.328H345.349V220.848C345.349 223.024 345.701 224.592 346.405 225.552C347.109 226.448 348.453 226.896 350.437 226.896C350.949 226.896 351.525 226.864 352.165 226.8C352.869 226.736 353.541 226.672 354.181 226.608V234.192C352.901 234.384 351.717 234.512 350.629 234.576C349.541 234.704 348.357 234.768 347.077 234.768ZM365.089 234V186.096H358.465V178.512H365.089V175.632C365.089 172.176 365.345 169.232 365.857 166.8C366.433 164.304 367.585 162.384 369.313 161.04C371.041 159.696 373.633 159.024 377.089 159.024C378.369 159.024 379.489 159.088 380.449 159.216C381.473 159.28 382.593 159.44 383.809 159.696V167.184C383.233 167.056 382.593 166.96 381.889 166.896C381.185 166.768 380.545 166.704 379.969 166.704C377.985 166.704 376.705 167.376 376.129 168.72C375.617 170 375.361 171.728 375.361 173.904V178.512H383.809V186.096H375.361V234H365.089ZM402.776 234.768C398.68 234.768 395.448 233.936 393.08 232.272C390.712 230.608 389.016 228.24 387.992 225.168C387.032 222.096 386.552 218.48 386.552 214.32V198.192C386.552 194.032 387.032 190.416 387.992 187.344C389.016 184.272 390.712 181.904 393.08 180.24C395.448 178.576 398.68 177.744 402.776 177.744C406.872 177.744 410.072 178.576 412.376 180.24C414.744 181.904 416.408 184.272 417.368 187.344C418.392 190.416 418.904 194.032 418.904 198.192V214.32C418.904 218.48 418.392 222.096 417.368 225.168C416.408 228.24 414.744 230.608 412.376 232.272C410.072 233.936 406.872 234.768 402.776 234.768ZM402.776 227.184C404.76 227.184 406.136 226.608 406.904 225.456C407.736 224.304 408.216 222.8 408.344 220.944C408.536 219.024 408.632 217.04 408.632 214.992V197.616C408.632 195.504 408.536 193.52 408.344 191.664C408.216 189.808 407.736 188.304 406.904 187.152C406.136 185.936 404.76 185.328 402.776 185.328C400.792 185.328 399.384 185.936 398.552 187.152C397.72 188.304 397.208 189.808 397.016 191.664C396.888 193.52 396.824 195.504 396.824 197.616V214.992C396.824 217.04 396.888 219.024 397.016 220.944C397.208 222.8 397.72 224.304 398.552 225.456C399.384 226.608 400.792 227.184 402.776 227.184ZM429.253 234V156.24H439.525V234H429.253ZM450.903 234V178.512H461.175V234H450.903ZM450.903 170.256V159.504H461.175V170.256H450.903ZM487.432 234.768C483.336 234.768 480.104 233.936 477.736 232.272C475.368 230.608 473.672 228.24 472.648 225.168C471.688 222.096 471.208 218.48 471.208 214.32V198.192C471.208 194.032 471.688 190.416 472.648 187.344C473.672 184.272 475.368 181.904 477.736 180.24C480.104 178.576 483.336 177.744 487.432 177.744C491.528 177.744 494.728 178.576 497.032 180.24C499.4 181.904 501.064 184.272 502.024 187.344C503.048 190.416 503.56 194.032 503.56 198.192V214.32C503.56 218.48 503.048 222.096 502.024 225.168C501.064 228.24 499.4 230.608 497.032 232.272C494.728 233.936 491.528 234.768 487.432 234.768ZM487.432 227.184C489.416 227.184 490.792 226.608 491.56 225.456C492.392 224.304 492.872 222.8 493 220.944C493.192 219.024 493.288 217.04 493.288 214.992V197.616C493.288 195.504 493.192 193.52 493 191.664C492.872 189.808 492.392 188.304 491.56 187.152C490.792 185.936 489.416 185.328 487.432 185.328C485.448 185.328 484.04 185.936 483.208 187.152C482.376 188.304 481.864 189.808 481.672 191.664C481.544 193.52 481.48 195.504 481.48 197.616V214.992C481.48 217.04 481.544 219.024 481.672 220.944C481.864 222.8 482.376 224.304 483.208 225.456C484.04 226.608 485.448 227.184 487.432 227.184Z" fill="white"/>
</g>
<path d="M231.888 300L228.912 281.504H231.728L233.648 295.136L236.112 281.504H238.736L241.2 295.072L243.12 281.504H245.936L242.864 300H239.984L237.456 286.944L234.96 300H231.888ZM251.153 300.256C250.427 300.256 249.787 300.053 249.233 299.648C248.678 299.221 248.241 298.688 247.921 298.048C247.601 297.387 247.441 296.693 247.441 295.968C247.441 294.816 247.633 293.845 248.017 293.056C248.401 292.267 248.923 291.605 249.585 291.072C250.267 290.517 251.046 290.037 251.921 289.632C252.817 289.227 253.755 288.832 254.737 288.448V287.136C254.737 286.389 254.694 285.771 254.609 285.28C254.523 284.789 254.342 284.427 254.065 284.192C253.809 283.936 253.414 283.808 252.881 283.808C252.411 283.808 252.027 283.915 251.729 284.128C251.451 284.341 251.249 284.651 251.121 285.056C250.993 285.44 250.929 285.899 250.929 286.432V287.36L247.537 287.232C247.579 285.184 248.049 283.68 248.945 282.72C249.841 281.739 251.227 281.248 253.105 281.248C254.939 281.248 256.241 281.749 257.009 282.752C257.777 283.755 258.161 285.205 258.161 287.104V295.552C258.161 296.128 258.171 296.683 258.193 297.216C258.235 297.749 258.278 298.251 258.321 298.72C258.385 299.168 258.438 299.595 258.481 300H255.345C255.281 299.659 255.195 299.232 255.089 298.72C255.003 298.187 254.939 297.707 254.897 297.28C254.683 298.005 254.267 298.688 253.649 299.328C253.051 299.947 252.219 300.256 251.153 300.256ZM252.497 297.312C252.838 297.312 253.158 297.216 253.457 297.024C253.755 296.832 254.022 296.619 254.257 296.384C254.491 296.128 254.651 295.925 254.737 295.776V290.528C254.203 290.827 253.702 291.125 253.233 291.424C252.763 291.723 252.347 292.043 251.985 292.384C251.643 292.704 251.366 293.077 251.153 293.504C250.961 293.909 250.865 294.379 250.865 294.912C250.865 295.659 251.003 296.245 251.281 296.672C251.558 297.099 251.963 297.312 252.497 297.312ZM261.782 300V274.08H265.206V300H261.782ZM273.703 300.256C272.743 300.256 271.964 300.075 271.367 299.712C270.791 299.349 270.364 298.837 270.087 298.176C269.831 297.515 269.703 296.736 269.703 295.84V283.776H267.751V281.504H269.703V276.096H273.127V281.504H276.103V283.776H273.127V295.616C273.127 296.341 273.244 296.864 273.479 297.184C273.714 297.483 274.162 297.632 274.823 297.632C274.994 297.632 275.186 297.621 275.399 297.6C275.634 297.579 275.858 297.557 276.071 297.536V300.064C275.644 300.128 275.25 300.171 274.887 300.192C274.524 300.235 274.13 300.256 273.703 300.256ZM283.739 300.256C282.288 300.256 281.168 299.979 280.379 299.424C279.589 298.848 279.035 298.016 278.715 296.928C278.416 295.819 278.267 294.464 278.267 292.864V288.64C278.267 286.997 278.427 285.632 278.747 284.544C279.067 283.456 279.621 282.635 280.411 282.08C281.221 281.525 282.331 281.248 283.739 281.248C285.296 281.248 286.437 281.568 287.163 282.208C287.909 282.848 288.4 283.776 288.635 284.992C288.869 286.187 288.987 287.627 288.987 289.312V290.816H281.691V294.528C281.691 295.275 281.755 295.883 281.883 296.352C282.032 296.821 282.256 297.173 282.555 297.408C282.875 297.621 283.28 297.728 283.771 297.728C284.283 297.728 284.667 297.611 284.923 297.376C285.2 297.12 285.381 296.768 285.467 296.32C285.573 295.851 285.627 295.307 285.627 294.688V293.568H288.955V294.272C288.955 296.128 288.56 297.589 287.771 298.656C286.981 299.723 285.637 300.256 283.739 300.256ZM281.691 288.96H285.627V287.296C285.627 286.528 285.584 285.888 285.499 285.376C285.413 284.843 285.232 284.448 284.955 284.192C284.699 283.915 284.283 283.776 283.707 283.776C283.152 283.776 282.725 283.904 282.427 284.16C282.149 284.416 281.957 284.853 281.851 285.472C281.744 286.069 281.691 286.901 281.691 287.968V288.96ZM292.183 300V281.504H295.607V284.128C296.29 282.997 296.973 282.24 297.655 281.856C298.338 281.472 299.021 281.28 299.703 281.28C299.789 281.28 299.863 281.28 299.927 281.28C300.013 281.28 300.119 281.291 300.247 281.312V285.088C299.991 284.981 299.693 284.896 299.351 284.832C299.031 284.747 298.701 284.704 298.359 284.704C297.826 284.704 297.335 284.832 296.887 285.088C296.461 285.323 296.034 285.792 295.607 286.496V300H292.183ZM303.457 300V284.032H301.249V281.504H303.457V280.544C303.457 279.392 303.542 278.411 303.713 277.6C303.905 276.768 304.289 276.128 304.865 275.68C305.441 275.232 306.305 275.008 307.457 275.008C307.883 275.008 308.257 275.029 308.577 275.072C308.918 275.093 309.291 275.147 309.697 275.232V277.728C309.505 277.685 309.291 277.653 309.057 277.632C308.822 277.589 308.609 277.568 308.417 277.568C307.755 277.568 307.329 277.792 307.137 278.24C306.966 278.667 306.881 279.243 306.881 279.968V281.504H309.697V284.032H306.881V300H303.457ZM313.9 300.256C313.174 300.256 312.609 300.064 312.204 299.68C311.798 299.296 311.51 298.816 311.34 298.24C311.19 297.664 311.116 297.077 311.116 296.48V281.504H314.54V295.456C314.54 296.117 314.636 296.64 314.828 297.024C315.02 297.387 315.414 297.568 316.012 297.568C316.396 297.568 316.79 297.461 317.196 297.248C317.622 297.013 318.028 296.736 318.412 296.416V281.504H321.836V300H318.412V298.176C317.814 298.752 317.132 299.243 316.364 299.648C315.617 300.053 314.796 300.256 313.9 300.256ZM325.433 300V281.504H328.857V284.128C329.54 282.997 330.223 282.24 330.905 281.856C331.588 281.472 332.271 281.28 332.953 281.28C333.039 281.28 333.113 281.28 333.177 281.28C333.263 281.28 333.369 281.291 333.497 281.312V285.088C333.241 284.981 332.943 284.896 332.601 284.832C332.281 284.747 331.951 284.704 331.609 284.704C331.076 284.704 330.585 284.832 330.137 285.088C329.711 285.323 329.284 285.792 328.857 286.496V300H325.433ZM335.715 300V281.504H339.139V284.128C339.821 282.997 340.504 282.24 341.187 281.856C341.869 281.472 342.552 281.28 343.235 281.28C343.32 281.28 343.395 281.28 343.459 281.28C343.544 281.28 343.651 281.291 343.779 281.312V285.088C343.523 284.981 343.224 284.896 342.883 284.832C342.563 284.747 342.232 284.704 341.891 284.704C341.357 284.704 340.867 284.832 340.419 285.088C339.992 285.323 339.565 285.792 339.139 286.496V300H335.715ZM350.926 300.256C349.475 300.256 348.355 299.979 347.566 299.424C346.777 298.848 346.222 298.016 345.902 296.928C345.603 295.819 345.454 294.464 345.454 292.864V288.64C345.454 286.997 345.614 285.632 345.934 284.544C346.254 283.456 346.809 282.635 347.598 282.08C348.409 281.525 349.518 281.248 350.926 281.248C352.483 281.248 353.625 281.568 354.35 282.208C355.097 282.848 355.587 283.776 355.822 284.992C356.057 286.187 356.174 287.627 356.174 289.312V290.816H348.878V294.528C348.878 295.275 348.942 295.883 349.07 296.352C349.219 296.821 349.443 297.173 349.742 297.408C350.062 297.621 350.467 297.728 350.958 297.728C351.47 297.728 351.854 297.611 352.11 297.376C352.387 297.12 352.569 296.768 352.654 296.32C352.761 295.851 352.814 295.307 352.814 294.688V293.568H356.142V294.272C356.142 296.128 355.747 297.589 354.958 298.656C354.169 299.723 352.825 300.256 350.926 300.256ZM348.878 288.96H352.814V287.296C352.814 286.528 352.771 285.888 352.686 285.376C352.601 284.843 352.419 284.448 352.142 284.192C351.886 283.915 351.47 283.776 350.894 283.776C350.339 283.776 349.913 283.904 349.614 284.16C349.337 284.416 349.145 284.853 349.038 285.472C348.931 286.069 348.878 286.901 348.878 287.968V288.96ZM359.371 300V281.504H362.795V284.128C363.478 282.997 364.16 282.24 364.843 281.856C365.526 281.472 366.208 281.28 366.891 281.28C366.976 281.28 367.051 281.28 367.115 281.28C367.2 281.28 367.307 281.291 367.435 281.312V285.088C367.179 284.981 366.88 284.896 366.539 284.832C366.219 284.747 365.888 284.704 365.547 284.704C365.014 284.704 364.523 284.832 364.075 285.088C363.648 285.323 363.222 285.792 362.795 286.496V300H359.371ZM367.052 300V296.192H370.476V300H367.052ZM373.244 300V281.504H376.668V283.328C377.286 282.752 377.969 282.261 378.716 281.856C379.462 281.451 380.284 281.248 381.18 281.248C381.926 281.248 382.492 281.44 382.876 281.824C383.281 282.208 383.558 282.688 383.708 283.264C383.878 283.84 383.964 284.427 383.964 285.024V300H380.54V286.016C380.54 285.355 380.444 284.843 380.252 284.48C380.06 284.117 379.665 283.936 379.068 283.936C378.684 283.936 378.278 284.053 377.852 284.288C377.446 284.501 377.052 284.768 376.668 285.088V300H373.244ZM392.426 300.256C390.975 300.256 389.855 299.979 389.066 299.424C388.277 298.848 387.722 298.016 387.402 296.928C387.103 295.819 386.954 294.464 386.954 292.864V288.64C386.954 286.997 387.114 285.632 387.434 284.544C387.754 283.456 388.309 282.635 389.098 282.08C389.909 281.525 391.018 281.248 392.426 281.248C393.983 281.248 395.125 281.568 395.85 282.208C396.597 282.848 397.087 283.776 397.322 284.992C397.557 286.187 397.674 287.627 397.674 289.312V290.816H390.378V294.528C390.378 295.275 390.442 295.883 390.57 296.352C390.719 296.821 390.943 297.173 391.242 297.408C391.562 297.621 391.967 297.728 392.458 297.728C392.97 297.728 393.354 297.611 393.61 297.376C393.887 297.12 394.069 296.768 394.154 296.32C394.261 295.851 394.314 295.307 394.314 294.688V293.568H397.642V294.272C397.642 296.128 397.247 297.589 396.458 298.656C395.669 299.723 394.325 300.256 392.426 300.256ZM390.378 288.96H394.314V287.296C394.314 286.528 394.271 285.888 394.186 285.376C394.101 284.843 393.919 284.448 393.642 284.192C393.386 283.915 392.97 283.776 392.394 283.776C391.839 283.776 391.413 283.904 391.114 284.16C390.837 284.416 390.645 284.853 390.538 285.472C390.431 286.069 390.378 286.901 390.378 287.968V288.96ZM405.703 300.256C404.743 300.256 403.964 300.075 403.367 299.712C402.791 299.349 402.364 298.837 402.087 298.176C401.831 297.515 401.703 296.736 401.703 295.84V283.776H399.751V281.504H401.703V276.096H405.127V281.504H408.103V283.776H405.127V295.616C405.127 296.341 405.244 296.864 405.479 297.184C405.714 297.483 406.162 297.632 406.823 297.632C406.994 297.632 407.186 297.621 407.399 297.6C407.634 297.579 407.858 297.557 408.071 297.536V300.064C407.644 300.128 407.25 300.171 406.887 300.192C406.524 300.235 406.13 300.256 405.703 300.256ZM410.939 300V274.08H414.363V300H410.939ZM418.155 300V281.504H421.579V300H418.155ZM418.155 278.752V275.168H421.579V278.752H418.155ZM426.332 300V284.032H424.124V281.504H426.332V280.544C426.332 279.392 426.417 278.411 426.588 277.6C426.78 276.768 427.164 276.128 427.74 275.68C428.316 275.232 429.18 275.008 430.332 275.008C430.758 275.008 431.132 275.029 431.452 275.072C431.793 275.093 432.166 275.147 432.572 275.232V277.728C432.38 277.685 432.166 277.653 431.932 277.632C431.697 277.589 431.484 277.568 431.292 277.568C430.63 277.568 430.204 277.792 430.012 278.24C429.841 278.667 429.756 279.243 429.756 279.968V281.504H432.572V284.032H429.756V300H426.332ZM434.143 304.64V302.016C434.975 302.016 435.636 301.973 436.127 301.888C436.618 301.824 436.97 301.685 437.183 301.472C437.396 301.28 437.503 301.003 437.503 300.64C437.503 300.448 437.428 300.021 437.279 299.36C437.13 298.699 436.97 297.995 436.799 297.248L433.087 281.504H436.543L439.039 295.328L441.439 281.504H444.895L440.479 301.024C440.287 301.92 439.935 302.624 439.423 303.136C438.911 303.669 438.25 304.053 437.439 304.288C436.65 304.523 435.69 304.64 434.559 304.64H434.143ZM445.865 300V296.192H449.289V300H445.865ZM454.84 300.256C454.115 300.256 453.475 300.053 452.92 299.648C452.365 299.221 451.928 298.688 451.608 298.048C451.288 297.387 451.128 296.693 451.128 295.968C451.128 294.816 451.32 293.845 451.704 293.056C452.088 292.267 452.611 291.605 453.272 291.072C453.955 290.517 454.733 290.037 455.608 289.632C456.504 289.227 457.443 288.832 458.424 288.448V287.136C458.424 286.389 458.381 285.771 458.296 285.28C458.211 284.789 458.029 284.427 457.752 284.192C457.496 283.936 457.101 283.808 456.568 283.808C456.099 283.808 455.715 283.915 455.416 284.128C455.139 284.341 454.936 284.651 454.808 285.056C454.68 285.44 454.616 285.899 454.616 286.432V287.36L451.224 287.232C451.267 285.184 451.736 283.68 452.632 282.72C453.528 281.739 454.915 281.248 456.792 281.248C458.627 281.248 459.928 281.749 460.696 282.752C461.464 283.755 461.848 285.205 461.848 287.104V295.552C461.848 296.128 461.859 296.683 461.88 297.216C461.923 297.749 461.965 298.251 462.008 298.72C462.072 299.168 462.125 299.595 462.168 300H459.032C458.968 299.659 458.883 299.232 458.776 298.72C458.691 298.187 458.627 297.707 458.584 297.28C458.371 298.005 457.955 298.688 457.336 299.328C456.739 299.947 455.907 300.256 454.84 300.256ZM456.184 297.312C456.525 297.312 456.845 297.216 457.144 297.024C457.443 296.832 457.709 296.619 457.944 296.384C458.179 296.128 458.339 295.925 458.424 295.776V290.528C457.891 290.827 457.389 291.125 456.92 291.424C456.451 291.723 456.035 292.043 455.672 292.384C455.331 292.704 455.053 293.077 454.84 293.504C454.648 293.909 454.552 294.379 454.552 294.912C454.552 295.659 454.691 296.245 454.968 296.672C455.245 297.099 455.651 297.312 456.184 297.312ZM465.15 306.08V281.504H468.574V282.976C468.979 282.507 469.47 282.101 470.046 281.76C470.622 281.419 471.305 281.248 472.094 281.248C473.054 281.248 473.811 281.504 474.366 282.016C474.942 282.507 475.369 283.136 475.646 283.904C475.923 284.651 476.105 285.419 476.19 286.208C476.275 286.976 476.318 287.637 476.318 288.192V292.672C476.318 293.973 476.19 295.211 475.934 296.384C475.678 297.536 475.209 298.475 474.526 299.2C473.865 299.904 472.926 300.256 471.71 300.256C471.049 300.256 470.462 300.096 469.95 299.776C469.438 299.435 468.979 299.051 468.574 298.624V306.08H465.15ZM471.038 297.568C471.635 297.568 472.062 297.355 472.318 296.928C472.574 296.48 472.734 295.883 472.798 295.136C472.862 294.389 472.894 293.568 472.894 292.672V288.192C472.894 287.424 472.851 286.72 472.766 286.08C472.681 285.419 472.499 284.896 472.222 284.512C471.945 284.128 471.507 283.936 470.91 283.936C470.462 283.936 470.035 284.032 469.63 284.224C469.225 284.416 468.873 284.64 468.574 284.896V296.736C468.894 296.971 469.257 297.173 469.662 297.344C470.067 297.493 470.526 297.568 471.038 297.568ZM479.431 306.08V281.504H482.855V282.976C483.26 282.507 483.751 282.101 484.327 281.76C484.903 281.419 485.586 281.248 486.375 281.248C487.335 281.248 488.092 281.504 488.647 282.016C489.223 282.507 489.65 283.136 489.927 283.904C490.204 284.651 490.386 285.419 490.471 286.208C490.556 286.976 490.599 287.637 490.599 288.192V292.672C490.599 293.973 490.471 295.211 490.215 296.384C489.959 297.536 489.49 298.475 488.807 299.2C488.146 299.904 487.207 300.256 485.991 300.256C485.33 300.256 484.743 300.096 484.231 299.776C483.719 299.435 483.26 299.051 482.855 298.624V306.08H479.431ZM485.319 297.568C485.916 297.568 486.343 297.355 486.599 296.928C486.855 296.48 487.015 295.883 487.079 295.136C487.143 294.389 487.175 293.568 487.175 292.672V288.192C487.175 287.424 487.132 286.72 487.047 286.08C486.962 285.419 486.78 284.896 486.503 284.512C486.226 284.128 485.788 283.936 485.191 283.936C484.743 283.936 484.316 284.032 483.911 284.224C483.506 284.416 483.154 284.64 482.855 284.896V296.736C483.175 296.971 483.538 297.173 483.943 297.344C484.348 297.493 484.807 297.568 485.319 297.568Z" fill="white"/>
<defs>
<filter id="filter0_d_1_2" x="213.282" y="156.24" width="294.278" height="86.528" filterUnits="userSpaceOnUse" color-interpolation-filters="sRGB">
<feFlood flood-opacity="0" result="BackgroundImageFix"/>
<feColorMatrix in="SourceAlpha" type="matrix" values="0 0 0 0 0 0 0 0 0 0 0 0 0 0 0 0 0 0 127 0" result="hardAlpha"/>
<feOffset dy="4"/>
<feGaussianBlur stdDeviation="2"/>
<feComposite in2="hardAlpha" operator="out"/>
<feColorMatrix type="matrix" values="0 0 0 0 0 0 0 0 0 0 0 0 0 0 0 0 0 0 0.25 0"/>
<feBlend mode="normal" in2="BackgroundImageFix" result="effect1_dropShadow_1_2"/>
<feBlend mode="normal" in="SourceGraphic" in2="effect1_dropShadow_1_2" result="shape"/>
</filter>
<radialGradient id="paint0_radial_1_2" cx="0" cy="0" r="1" gradientUnits="userSpaceOnUse" gradientTransform="rotate(29.3578) scale(826.09 1468.6)">
<stop stop-color="#3730A3"/>
<stop offset="1" stop-color="#F43F5E"/>
</radialGradient>
</defs>
</svg>
